<?xml version="1.0" encoding="UTF-8" standalone="no"?>
<!-- Created for MapSVG plugin: http://mapsvg.com -->

<svg
   mapsvg:geoViewBox="14.182891 36.082376 14.576552 35.805673"
   width="70"
   height="50"
   version="1.1"
   id="svg7"
   sodipodi:docname="clinic_locations.svg"
   inkscape:version="1.1.1 (3bf5ae0, 2021-09-20)"
   xmlns:inkscape="http://www.inkscape.org/namespaces/inkscape"
   xmlns:sodipodi="http://sodipodi.sourceforge.net/DTD/sodipodi-0.dtd"
   xmlns="http://www.w3.org/2000/svg"
   xmlns:svg="http://www.w3.org/2000/svg"
   xmlns:mapsvg="http://mapsvg.com">
  <g
     id="g836"
     transform="matrix(0.14962194,0,0,0.15198908,8.5037474,-1.5262333)">
    <ellipse
       style="fill:#ffffff;fill-opacity:1;stroke:none;stroke-width:23.1263;stroke-linecap:round;stroke-linejoin:round;stroke-miterlimit:4;stroke-dasharray:none;stroke-opacity:1;paint-order:markers stroke fill"
       id="ellipse827"
       cx="155.6524"
       cy="140.45096"
       rx="119.57755"
       ry="105.714" />
    <path
       d="m 172.93003,128.04212 v 0.72481 l -2.11978,0.29138 -0.82497,1.01436 -0.94152,0.14569 -0.23492,-0.28956 0.11837,-0.7248 0.47167,-0.43525 h 0.94152 l 1.17826,-0.72481 h 1.41137 z m -17.19136,-16.37003 0.58822,1.01436 0.58822,0.28774 0.23493,0.87049 0.59004,0.43525 v 1.44961 l 0.82315,0.14569 0.82496,0.86685 0.11838,1.16006 -1.76649,1.16005 h -2.23815 l -0.59005,0.7248 h -0.46984 l -0.23493,0.43343 0.23493,0.57911 -1.64812,1.16006 -0.70659,1.01436 -3.4146,1.88122 -0.3533,0.58093 0.11838,1.15823 0.70659,1.59348 0.59004,0.43525 5.76931,-0.72663 2.00141,-0.57911 0.35329,-0.43343 1.88486,-0.58094 0.82497,-0.57911 0.46985,0.43525 -0.11838,0.57911 0.59005,0.86868 h 0.82314 l 0.11837,-0.43525 1.05989,-0.57912 0.82315,1.01437 1.17826,-0.14569 0.82497,0.57911 h 0.47167 l 0.3533,-0.57911 0.23492,0.29137 h 1.05989 v 0.57912 l -0.82496,0.72481 0.94151,1.01436 -0.94151,1.44779 0.46984,0.29138 0.11838,0.86685 -0.3533,0.43525 h -1.05989 l -0.70659,-0.57912 -0.7066,0.14387 v 0.58094 l 0.7066,0.28773 -0.23493,1.01437 -0.70659,0.86867 -0.47167,1.44779 -0.94152,0.29138 -0.23493,0.7248 -0.82496,0.43343 -0.11655,1.16005 0.94151,0.14569 1.0599,-0.58094 h 0.70659 l 0.23492,-0.57911 0.7066,-0.14569 0.35329,-0.43343 1.88486,-0.43525 0.3533,-0.7248 0.82497,0.29138 -0.11838,0.43342 h 1.41319 l 0.11837,-0.43342 0.7066,0.43342 0.23492,-0.57911 0.94334,0.29138 0.23493,-0.14569 v -1.16005 l 0.70659,-0.28774 h 1.53156 l 0.23492,-0.43525 0.82315,-0.14387 0.23675,-1.30392 1.29663,-1.01436 1.05989,-0.28774 0.94152,-0.7248 h 2.23633 l 0.11838,0.7248 -1.64812,-0.14569 v 1.3021 l -0.82314,1.44961 0.23492,1.59348 -1.05989,1.59348 -0.47167,1.88122 h 0.3533 l 0.23492,-1.01437 0.7066,-1.01254 0.35329,-0.28956 h 0.94152 l 0.94152,-1.15823 0.47167,-0.14569 0.70659,-1.73734 0.59005,-0.14569 0.35329,0.43524 0.94334,-0.14569 1.64994,1.3021 h 1.52974 l 0.47167,0.86868 0.70477,0.43342 -0.3533,0.86868 0.94334,0.58093 0.47167,1.44779 1.05989,-0.28956 -0.3533,-0.28773 0.11838,-1.30392 0.94152,-0.14569 0.70659,1.44961 v 2.31646 l 0.47167,0.14387 0.23492,-0.72298 0.47167,-0.14387 0.23675,1.3021 0.70659,0.86867 4.23957,0.86867 0.11655,-0.43524 1.88486,-0.86868 1.05807,0.72481 1.76648,0.43525 0.23675,0.28773 -0.11838,1.01436 1.17827,0.43525 0.23492,0.57912 h 0.94152 l 0.58822,0.43342 v 0 l -0.32416,1.33124 -1.28935,0.79219 -0.58094,1.10906 0.96702,0.31687 0.32233,3.2507 -0.51537,0.71388 h -2.70801 l -1.41865,1.82294 -2.12706,0.0801 -1.16006,-0.87232 -1.16005,-0.397 -0.96701,0.0801 -0.32234,1.10906 h -0.32234 l -1.80473,-1.98138 -2.3201,-0.23857 -1.35309,0.87232 0.19304,2.85369 -0.2586,1.98138 -0.38608,0.79219 -1.99777,0.23856 -1.87028,-0.71388 -0.38608,0.15844 -1.48239,1.90125 -0.0637,1.90125 -0.45164,0.0801 -2.5787,-2.21813 -4.77133,0.39519 -0.64468,0.397 -2.38566,4.1995 -0.0637,1.10906 0.45163,0.47531 0.2586,1.18919 1.35492,1.6645 v 0 l -0.38608,3.64406 0.71023,1.50607 0.0637,2.45487 0.83772,1.10906 v 0.55544 l -2.57871,2.29643 -1.03075,0.55362 -0.83771,0.15844 -1.03076,-0.71206 -1.87028,0.0801 -0.51538,1.82112 -0.83772,1.18736 -0.45163,1.90125 -1.93403,2.138 -0.0637,1.26749 -0.40975,0.51174 v 0 l -1.41137,-0.14569 -0.58822,-0.5773 -1.41319,0.14569 -1.76648,-1.44779 -0.59004,-1.15641 -1.76649,-0.43524 -1.29664,-1.59166 -2.58963,-1.73371 -0.82496,-1.88121 -0.7066,-0.5773 -0.23492,-0.86867 -0.46985,-0.43525 -1.17826,-0.14204 -0.82497,-0.58094 0.23492,-0.28774 h -0.35329 v -0.28955 l 0.82496,-0.86868 -2.82637,-0.14569 -2.35471,-1.59166 -0.35329,-1.15641 -1.0599,-0.86867 -1.17826,-1.59166 0.46985,-2.89375 -1.17826,-3.61857 -1.29482,-0.86867 -1.05989,-1.59166 v -1.01254 l 0.70659,-0.72298 0.11838,-0.86868 -0.94152,-1.44596 v -1.01255 l 2.47308,0.57912 2.82637,-0.14569 -0.11837,-0.57912 -0.70659,-0.14568 -0.3533,-0.86868 0.23492,-0.28956 -0.11837,-0.57911 -1.05989,-0.57912 -0.11837,-0.72298 -0.94152,-0.14569 -0.3533,-1.88304 0.3533,-2.6042 0.47167,-0.58093 h 1.17644 l 0.82315,0.14569 1.05989,1.44779 h 0.47167 l 0.11837,-0.43343 0.3533,0.14569 -0.23493,-1.01436 0.23493,-1.59166 -1.76649,0.14569 -0.35329,-1.30392 0.11837,-0.43343 2.47308,0.14569 0.23492,-0.43525 h -0.82314 l -0.23493,-0.57911 v -0.86868 l 0.82497,-0.43342 -0.23493,-0.58094 -1.88485,0.28956 -0.82497,-0.86867 0.23492,-0.28956 -0.23492,-0.28774 -1.05989,-0.43525 -2.23816,-0.28773 -0.70659,-1.59348 0.23492,-1.44779 1.17645,-0.72299 h 1.76648 v -1.59347 l 0.82315,-0.58094 v -1.15823 l 1.41319,-0.86868 v -0.43524 h -0.82315 l -0.46985,-0.43343 0.23493,-1.16005 -0.58823,-1.01254 h 0.7066 l 0.11837,-0.43525 -1.52974,-0.72481 -0.23492,-0.7248 0.23492,-0.43343 h 0.7066 l 0.23492,-0.72662 -0.47167,-0.72481 -0.23492,-1.44779 -3.0613,-0.14569 -1.0599,0.72481 h -1.29663 l -1.41137,-0.72481 -0.59004,-1.15823 0.70659,-0.7248 0.23493,-1.30575 0.59004,-1.15823 0.82315,-0.7248 h 1.29663 l 1.17644,-2.17442 h 0.59005 l 0.11655,0.29138 0.47167,-0.14569 0.23492,-1.01254 -2.58963,-0.86867 0.3533,-1.88486 0.70659,-0.14569 -0.11837,0.72481 -0.3533,0.29137 0.46985,0.57912 2.11978,-0.28774 1.41319,0.72481 h 0.70659 l 0.3533,-0.43525 0.82497,-0.14569 1.64811,0.72481 -0.3533,-0.72481 0.23493,-0.43342 h 1.41319 l 0.82314,0.7248 0.3533,-2.46397 h 1.29663 l 0.3533,0.14569 0.23493,0.87049 h 1.05807 l 0.47167,-1.30574 1.88485,0.14569 0.11838,-0.28774 -1.17645,-0.58093 -0.11837,-1.44779 0.59004,-0.57912 1.52974,0.57912 -0.11837,-1.01437 z"
       title="Northern"
       id="MT_NO"
       style="fill:#0088d3;fill-opacity:1;stroke-width:0.182112" />
    <path
       d="m 207.31457,147.01453 0.82496,0.14569 0.7066,1.01255 -0.94152,0.87049 0.11837,0.43343 0.58822,-0.14569 0.46985,0.28955 0.58822,-0.43342 0.47167,0.43342 -0.70659,0.57912 v 1.01436 h 0.47167 l -0.11838,2.17078 -1.05989,0.14569 v 0.43524 l 0.47167,0.14205 v 0.58094 l 0.7066,0.57911 h 0.58822 l 0.47167,-0.29138 v -1.3021 l 0.35329,-0.14386 1.88486,0.72298 1.17644,1.01436 0.82497,0.28956 -0.11837,1.44779 1.05989,0.43343 0.47167,1.30392 1.64811,0.57729 0.11837,0.57912 -0.82496,0.57911 h -0.82497 l -1.76466,-0.86685 -0.11838,-0.43525 -0.82496,-0.43342 h -1.17644 l -1.88486,1.01072 -0.23493,0.86867 2.47308,-0.28774 1.52974,0.57912 -0.11837,1.3021 -0.94152,0.57911 -1.05989,-0.14386 -0.23492,-0.43525 -0.94334,-0.43343 h -1.17645 l 0.82497,1.15641 h 0.58822 l 0.3533,0.43525 v 1.3021 l -1.05989,0.57729 v 1.01437 0 l -0.36423,1.81019 v 0 l -1.80655,1.02893 -1.09449,-0.55362 -0.32234,-0.79219 -1.74098,-0.31687 -0.96702,1.90125 -0.51537,0.0801 -1.35492,1.82112 -0.38607,0.0801 -1.41866,-1.10906 -3.03034,-0.79218 h -1.54795 l -2.4494,-1.26932 -0.51538,0.397 -0.45164,1.98138 -0.57911,0.31505 -1.93585,-0.31505 -1.67543,0.31505 -1.03075,-0.23674 -2.51497,0.15843 -3.54571,2.13982 -0.90328,-0.0801 -2.38566,-0.95063 -1.22379,0.23857 -2.06333,-0.71388 v 0 l -1.35491,-1.66268 -0.25678,-1.18919 -0.45164,-0.47531 0.0637,-1.10906 2.38566,-4.1995 0.64468,-0.397 4.77133,-0.39519 2.5787,2.21812 0.45164,-0.0783 0.0637,-1.90307 1.48421,-1.90125 0.38608,-0.15844 1.87029,0.71388 1.99777,-0.23857 0.38607,-0.79218 0.2586,-1.98138 -0.19304,-2.85369 1.35309,-0.8705 2.32193,0.23675 1.80473,1.98138 h 0.32234 l 0.32233,-1.10906 0.96702,-0.0801 1.16005,0.397 1.16005,0.87232 2.12889,-0.0801 1.41865,-1.82294 h 2.70618 l 0.5172,-0.71206 -0.32234,-3.2507 -0.96701,-0.31687 0.57911,-1.10906 1.28936,-0.79401 z"
       title="Central"
       id="MT_CE"
       style="fill:#0088d3;fill-opacity:1;stroke-width:0.182112" />
    <path
       d="m 229.8072,200.11835 0.071,-1.54978 -0.90327,-1.02893 -0.45164,-1.50424 -2.19081,-2.29643 -2.45122,-0.8705 -0.32234,-1.18737 -0.38608,-0.15843 -0.19303,-1.18737 -2.25637,-3.16875 -1.87029,-3.72236 -2.51496,-0.94881 -1.54613,-1.18919 -1.22561,0.15844 -1.93403,0.95062 -0.45164,0.63375 -0.90145,0.0801 -0.5172,-1.98137 -1.48239,-0.31688 -0.77398,-1.02893 -1.54613,-0.55544 -0.96701,-0.8705 v -0.47531 l 0.90145,-0.39518 -1.80473,-1.6645 0.2586,-0.8705 1.67543,-2.45669 1.48239,-0.95062 1.48421,-0.15844 0.96702,-1.10906 h 0.70841 l 0.32234,-0.31687 0.45164,-1.2675 -0.83772,-0.63375 v 0 l 0.36423,-1.81019 v 0 l 0.82314,-0.14569 0.7066,-1.01072 h 0.58822 l 0.35512,-0.58094 h 0.47167 l 0.46984,-0.86867 h 0.47167 l 0.3533,-0.57912 1.05807,-0.14387 0.82497,-0.86867 1.29663,0.28956 1.17645,-0.86868 h 0.70659 l -0.46985,3.03945 -0.47167,0.43525 h -1.05989 l -0.3533,0.28773 -0.82496,1.01437 v 0.57729 l -0.82497,0.43525 -0.82314,2.02508 -0.7066,0.58094 -1.05989,0.28774 -0.70659,1.16005 -1.05989,0.28774 0.35329,0.86867 h 0.7066 l 0.70659,-0.72481 h 0.3533 l 0.35329,-0.86867 1.76649,-0.28774 0.94152,-0.57911 0.70841,0.43525 0.35148,1.01254 h 0.3533 l 0.35511,1.3021 0.11656,-0.86868 -1.41319,-3.61674 1.53156,0.43343 1.05807,1.59166 h 0.47167 l -0.47167,-1.88122 -0.58822,-0.57911 0.23674,-0.43343 1.05807,1.3021 2.23816,0.57729 v -0.28773 h -0.58822 l -0.94334,-1.44597 0.59004,-0.86868 0.82314,-0.14568 -1.17826,-1.15824 0.12019,-0.57911 -0.35511,-1.01254 0.35511,-0.28956 1.05807,0.57911 0.3533,0.86868 0.35512,-0.43525 h 0.94152 l 0.82496,0.58094 h 0.58822 l 0.7066,0.72298 1.17644,-0.14569 0.58822,0.43343 h 0.7066 l 2.47308,2.75171 1.76648,0.4316 1.06171,1.73735 h 0.58822 l 0.58822,0.57912 0.11838,1.15823 1.41319,0.14569 1.41136,0.86685 2.59145,3.32718 0.7066,0.28956 0.70659,1.73735 1.29482,1.01254 -0.11656,0.43342 h -1.29663 l -0.46985,0.43525 -1.41501,-0.28956 -0.70477,0.86686 h -1.41319 l -0.47167,0.43342 v 0.43525 h 0.47167 l 0.11655,-0.28956 1.64994,-0.14569 0.11655,-0.43342 0.94152,-0.14387 1.415,0.86685 0.58823,0.86867 0.94151,0.14569 v 0.28774 l -1.41318,1.01254 -0.7066,1.15823 -0.94152,0.14387 -1.05989,0.72299 0.11838,0.28955 h -0.82497 l -0.58822,0.5773 -0.11838,0.86867 0.59005,0.58094 0.46985,0.28774 2.11978,0.14386 -0.23493,1.01437 h -0.35511 l -0.11656,0.4316 h -0.47167 l -0.23492,1.15823 h 0.3533 l 0.35329,0.72299 0.94152,0.43342 0.59004,0.86868 v 0.57729 l -1.415,0.72481 -1.05807,-1.59166 -1.53157,-0.28956 -0.70659,0.72298 0.47167,1.15824 h -1.05989 l -0.3533,0.57729 0.23493,1.01436 1.53156,0.43161 0.11655,0.28956 -0.82315,1.3021 0.11656,0.86685 0.70659,0.86867 -0.11655,1.15459 -0.3533,0.14569 -0.11837,1.15823 -0.94152,-0.14569 0.94152,0.72299 v 0.57729 h -0.82497 l 0.23675,1.44597 h -0.94152 l -0.35512,-0.5773 -0.11655,-1.3021 -0.82497,-1.01254 0.23675,-1.87939 -0.59004,-0.43343 -1.64812,-4.48177 -0.70659,-0.72298 -2.23633,-0.57912 -0.11838,0.43343 0.46985,1.44596 h 0.47167 l -0.23492,0.72299 0.46985,1.15823 -0.7066,1.30028 z"
       title="Southern"
       id="MT_SO"
       style="fill:#0088d3;fill-opacity:1;stroke-width:0.182112" />
    <path
       d="m 210.60168,168.07759 0.83772,0.63375 -0.45164,1.2675 -0.32234,0.31687 h -0.70841 l -0.96702,1.10906 -1.48421,0.15844 -1.48239,0.95062 -1.67543,2.45669 -0.2586,0.8705 1.80473,1.6645 -0.90145,0.39518 v 0.47531 l 0.96701,0.8705 1.54613,0.55544 0.77398,1.02893 1.48239,0.31688 0.5172,1.98137 0.90145,-0.0801 0.45164,-0.63375 1.93403,-0.95062 1.22561,-0.15844 1.54613,1.18919 2.51496,0.94881 1.87029,3.72236 2.25637,3.16875 0.19303,1.18737 0.38608,0.15843 0.32234,1.18737 2.45122,0.8705 2.19081,2.29643 0.45164,1.50424 0.90327,1.02893 -0.071,1.54978 v 0 l -0.47167,-0.14387 -1.29482,-1.73553 -1.76648,0.43161 h -1.41319 l 0.3533,0.43524 -0.47167,0.72299 h 0.94152 l 0.35511,1.73552 -0.35511,0.43343 -1.88304,0.14569 0.58822,1.7337 0.3533,0.14569 v 0.86868 h 0.47167 l 0.23674,-0.58094 1.05807,-0.43343 2.23634,2.45851 1.06171,0.14387 -0.3533,-0.86685 -0.70841,-0.57912 -0.35148,-1.01072 h 1.76649 l 1.41318,1.30028 0.11656,1.15641 1.05989,-0.57911 h 0.23674 v 0.43524 l -0.47167,0.14569 -1.29481,1.58984 -0.82497,-1.01254 -0.3533,2.31282 -1.53156,1.01254 v 0.43343 l -0.94152,0.28955 -0.58822,0.5773 h -0.94152 l -0.82496,0.72298 -3.88627,-0.28955 -0.47167,-0.28774 -2.23633,0.4316 -2.00141,-0.4316 -0.59004,-0.5773 -1.05807,-0.14569 -2.00323,-1.30209 h -0.47167 l -0.11655,-0.43343 h -0.82497 l -0.3533,-0.43525 -1.17644,-0.14205 -0.70659,-0.43524 -2.35471,-0.14387 -0.23675,0.28956 h -1.05989 l -0.94151,-0.43343 -0.3533,-0.57912 -0.7066,0.14387 -0.11837,0.43525 -1.05989,-0.28956 -0.11655,0.43343 h -1.29664 v -0.43343 h -0.46985 l -0.11837,-0.28956 -0.82497,0.14387 v -0.28955 h -0.82314 l -1.53156,-1.58984 -2.23816,-0.14387 -1.29481,-0.43343 -0.11655,-0.28773 -0.11838,0.28773 -0.47166,-0.14569 v 0.43525 l -0.3533,0.28774 h -1.29482 l -4.70941,-2.31282 h -0.59004 l -0.46985,0.43342 -1.88486,-1.87939 -3.17967,-0.28774 -1.29482,-0.43524 h -1.64993 l -1.41319,-0.72299 -0.70477,-1.58983 v -1.01255 l -2.47308,-0.43342 -2.00141,-0.86868 -0.47167,0.57912 -0.58822,-0.86867 -0.58822,-0.28774 0.11655,-0.28956 -1.41319,0.14387 -0.70659,-0.43525 -0.58822,-2.02326 -1.06171,-0.14387 -0.94152,-1.44597 v 0 l 0.40975,-0.51173 0.0656,-1.2675 1.93403,-2.13799 0.44981,-1.90125 0.83954,-1.18737 0.51538,-1.82112 1.86846,-0.0801 1.03258,0.71388 0.83771,-0.15843 1.03076,-0.55545 2.58052,-2.29643 v -0.55362 l -0.83954,-1.10906 -0.0637,-2.45486 -0.70842,-1.50607 0.38608,-3.64406 v 0 l 2.06333,0.71388 1.22379,-0.23857 2.38566,0.95063 0.90328,0.0801 3.54571,-2.13982 2.51497,-0.15843 1.03075,0.23674 1.67543,-0.31505 1.93585,0.31505 0.57911,-0.31505 0.45164,-1.98138 0.51538,-0.397 2.4494,1.26932 h 1.54795 l 3.03034,0.79218 1.41866,1.10906 0.38607,-0.0801 1.35492,-1.82112 0.51537,-0.0801 0.96702,-1.90125 1.74098,0.31687 0.32234,0.79219 1.09449,0.55362 z"
       title="South Eastern"
       id="MT_SE"
       style="fill:#0088d3;fill-opacity:1;stroke-width:0.182112" />
    <path
       d="m 135.95404,103.26399 0.70659,0.72662 v 0.57912 l 0.3533,0.14569 v 0.87049 l -0.82314,-0.87049 -1.17827,0.28773 -0.82496,-0.87049 v -0.57912 z m 7.89091,-2.75171 0.58822,0.7248 -0.23493,0.72481 0.82497,1.01436 h 1.29482 l 2.23633,2.46397 0.3533,0.8705 -0.7066,1.01254 -0.11655,0.7248 -1.41319,-0.14386 -2.00141,0.43342 -0.11837,0.29138 -0.82497,-0.14569 -0.23492,0.29138 -1.64811,-0.29138 -0.47167,0.29138 0.3533,0.14387 -0.11838,0.29138 -2.708,-0.14569 -0.94334,0.43524 h -0.94152 l 1.17827,-1.59347 1.05989,-0.72481 0.11837,-0.58094 -0.11837,-0.57911 -0.7066,0.29138 -0.35329,-0.29138 -0.11838,-0.72481 -0.70659,-0.29138 -0.58822,-1.44961 0.35329,-0.57911 -0.82314,-0.72481 0.3533,-1.01436 1.53156,0.29138 0.46985,-0.72481 h 0.82496 l 0.3533,1.01255 0.3533,-1.01255 h 0.70659 l 0.82497,0.57912 0.82314,0.14569 0.3533,0.7248 v -1.5953 z m -43.33534,-32.337603 0.7066,0.579115 h 1.17826 l 1.05989,0.433427 2.11978,-0.14569 0.23493,0.291379 h 1.17826 v 0.580937 l -0.47167,0.145689 v 0.437069 l 0.59004,0.433426 2.35471,0.291379 0.23492,1.014363 -0.35147,0.726626 0.11655,0.579116 h 0.70842 l 0.35329,-1.161874 0.23493,0.14569 0.11837,-0.291379 h 1.29664 l 0.58822,0.580936 h 0.70659 l 1.88486,2.030547 0.11837,1.161874 0.59004,0.724805 1.52974,0.433426 0.23493,0.870495 1.41136,0.437068 0.3533,0.724805 1.17644,-0.145689 1.29664,-2.320105 1.17826,-0.145689 0.3533,0.724805 h 0.46985 l 0.47167,1.44961 0.47167,0.437068 1.05807,0.143869 1.29663,1.740989 0.94152,-0.145689 1.41319,-0.868674 2.23816,0.289558 0.35329,0.724805 0.23675,2.757173 0.82496,0.289558 0.11838,1.161874 h 0.70659 l 0.58822,-0.579116 1.64994,0.579116 0.94151,1.740988 4.47449,4.49452 0.7066,1.305742 0.23492,1.5953 -0.94152,0.868673 -1.88304,0.291379 -0.82314,1.016184 -2.00323,0.14569 -1.05989,1.303921 h -2.00141 l -0.58822,-0.579116 -0.94152,-0.14569 h -1.05989 v 0.291379 l -0.94152,0.143869 h -0.82497 l -0.70659,-0.579116 h -0.46985 l -0.47167,0.579116 -0.94152,-0.287737 -0.23674,0.870495 0.94152,0.143868 -3.64952,2.755356 h -1.0599 l -0.35329,-0.29138 -0.58822,0.29138 -0.11838,0.7248 -0.82496,0.29138 -2.47126,-0.14569 -0.3533,0.8705 -2.94475,-0.57912 -1.05989,1.01254 -2.47126,0.8705 -0.94151,0.87049 v 0.43525 h -0.3533 l -1.17826,-1.45143 h -1.52974 l -1.05989,-2.02873 h -2.58963 l -0.59005,-0.43525 h -2.82455 l -0.46985,-0.43342 h -1.531561 l -0.469848,-0.57912 -0.706594,0.14569 -0.706594,-0.29138 v -0.29138 l -1.52974,0.29138 v 0.29138 h -0.706594 l -0.234924,0.43343 -1.178263,-0.57912 0.118372,-0.43525 -0.941518,0.29138 -0.706594,-1.160049 h -0.47167 l -0.234924,-0.724805 -1.529739,-1.5953 v -1.303921 l -1.413188,-1.303921 -1.413188,0.143869 0.353297,-0.287737 -1.059891,-0.580937 H 84.04124 l -0.47167,0.580937 -0.588221,-0.145689 -1.059891,0.291379 v -0.291379 l -0.353297,0.145689 -1.529739,-1.016184 -0.588222,0.14569 -0.824966,-1.016185 v -0.870494 l 1.296636,-1.44961 -0.234924,-0.724806 0.234924,-1.30392 -0.590042,-1.740989 0.118372,-0.435247 0.706594,-0.14569 0.118373,-0.579115 -0.353297,-0.433426 h -0.469848 l -0.234925,-1.5953 1.52974,-1.5953 0.118372,-0.724805 -0.471669,-2.176236 -1.52974,-0.724806 h -0.941518 l -0.118373,-0.289557 -0.353297,-4.061094 0.47167,-1.5953 1.296636,0.289558 h 2.354706 l 0.353297,-0.289558 2.00141,0.145689 0.941518,-0.724805 0.706594,-1.307563 h 1.413188 l 1.529739,-0.724805 h 1.648112 l 2.00323,-0.433426 0.588222,0.579116 h 0.823145 l 0.590043,-1.161874 h 0.706594 l 1.178263,0.724805 h 1.059891 l 0.353297,-0.868673 h 1.178264 l 0.353297,0.289557 z"
       title="Gozo"
       id="MT_GO"
       style="fill:#0088d3;fill-opacity:1;stroke-width:0.182112" />
    <ellipse
       style="fill:none;stroke:#000000;stroke-width:25.705;stroke-linecap:round;stroke-linejoin:round;stroke-miterlimit:4;stroke-dasharray:none;stroke-opacity:1;paint-order:markers stroke fill"
       id="path846"
       cx="155.6524"
       cy="140.45096"
       rx="132.79968"
       ry="117.59824" />
    <path
       id="rect994"
       style="fill:#1a1a1a;fill-opacity:1;stroke:none;stroke-width:8.751;stroke-linecap:round;stroke-linejoin:round;stroke-miterlimit:4;stroke-dasharray:none;stroke-opacity:1;paint-order:markers stroke fill"
       d="m 269.23494,233.1382 -28.16394,-12.98804 -9.36717,8.40346 10.04477,29.23489 75.28335,81.22413 27.41679,-24.55414 z"
       sodipodi:nodetypes="ccccccc" />
  </g>
</svg>
